Coordinates
version=1
nRows=12
nColumns=42
inDegrees=yes

Units are S.I. units (second, meters, Newtons, ...)
If the header above contains a line with 'inDegrees', this indicates whether rotational values are in degrees (yes) or radians (no).

endheader
time	pelvis_tilt	pelvis_list	pelvis_rotation	pelvis_tx	pelvis_ty	pelvis_tz	hip_flexion_r	hip_adduction_r	hip_rotation_r	knee_angle_r	knee_adduction_r	knee_angle_r_beta	ankle_angle_r	subtalar_angle_r	mtp_angle_r	hip_flexion_l	hip_adduction_l	hip_rotation_l	knee_angle_l	knee_adduction_l	knee_angle_l_beta	ankle_angle_l	subtalar_angle_l	mtp_angle_l	lumbar_extension	lumbar_bending	lumbar_rotation	arm_flex_r	arm_add_r	arm_rot_r	elbow_flex_r	pro_sup_r	wrist_flex_r	wrist_dev_r	arm_flex_l	arm_add_l	arm_rot_l	elbow_flex_l	pro_sup_l	wrist_flex_l	wrist_dev_l
      2.19000000	     -0.24427530	      1.46694706	     -3.50744103	      0.08102981	      0.98028351	      0.29242711	      4.09996883	     -8.84980971	      3.17809729	     51.81857795	      7.56059648	      0.90440480	      1.94685560	      3.41246046	     -7.50921912	      6.69422028	      1.66886310	    -11.38663855	      5.20578969	      0.69546345	      0.09085817	      2.17113395	     16.64577446	     -7.50921912	     -9.28562063	     -3.85978251	     -0.69037941	     -0.99894459	    -14.03480388	     12.11817389	     32.31000536	     90.00000001	      0.00000000	      0.00000000	     -2.43602408	    -15.31287128	     15.51270964	     28.41861223	     90.00000001	      0.00000000	      0.00000000
      2.20000000	     -0.20905892	      1.44243285	     -3.16387096	      0.09059732	      0.98086746	      0.29067512	      5.63377109	     -8.89462176	      2.24494359	     53.23259209	      7.00403207	      0.92908400	      3.26102029	      5.11132036	     -7.50876526	      5.89194467	      1.85051520	    -11.05204269	      4.90198128	      0.66788781	      0.08555571	      2.66438141	     17.10900251	     -7.50876526	     -9.28071639	     -3.68157898	     -1.11657391	     -1.53823819	    -13.88139167	     11.89542234	     32.15078560	     90.00000001	      0.00000000	      0.00000000	     -1.54663222	    -15.62640648	     17.06787951	     28.56840511	     90.00000001	      0.00000000	      0.00000000
      2.21000000	      0.05324882	      1.18698171	     -2.82067486	      0.09988152	      0.98188208	      0.28888015	      6.77096235	     -8.71550888	      2.13277939	     54.09783759	      7.26754667	      0.94418538	      3.76620482	      5.17405108	     -7.50867998	      5.01014431	      1.71214272	    -10.99763089	      4.94008532	      0.75391998	      0.08622075	      2.98885322	     17.23490752	     -7.50867998	     -9.60710771	     -3.23070364	     -1.61414601	     -1.91150061	    -13.82949358	     11.88829843	     31.99722331	     90.00000001	      0.00000000	      0.00000000	     -0.68660020	    -15.65739563	     17.16373053	     28.80307948	     90.00000001	      0.00000000	      0.00000000
      2.22000000	      0.12216763	      1.04453685	     -2.43035952	      0.10930089	      0.98247351	      0.28728409	      8.13605300	     -8.57366657	      1.21061391	     54.83811315	      6.77981717	      0.95710563	      5.11115375	      6.80047690	     -7.50825322	      4.17203056	      1.75239959	    -10.34796336	      4.62908243	      0.72652371	      0.08079273	      3.62741208	     17.61517675	     -7.50825322	     -9.65554878	     -2.92011475	     -1.96812966	     -2.49168453	    -13.63630838	     11.38278864	     31.80997867	     90.00000001	      0.00000000	      0.00000000	      0.34526249	    -15.99739351	     18.94333515	     28.87419134	     90.00000001	      0.00000000	      0.00000000
      2.23000000	      0.24712816	      0.81081879	     -2.07691899	      0.11856079	      0.98319507	      0.28563699	      9.34713215	     -8.35575319	      0.95068745	     55.17504703	      6.94519265	      0.96298624	      5.85265401	      7.09606351	     -7.50806038	      3.38448443	      1.67475954	    -10.00136454	      4.52082821	      0.69002999	      0.07890334	      4.14006940	     17.86311526	     -7.50806038	     -9.79345742	     -2.49188346	     -2.35893913	     -2.96432417	    -13.52671653	     11.23555661	     31.62200860	     90.00000001	      0.00000000	      0.00000000	      1.28546319	    -16.07938720	     19.45577213	     29.01333779	     90.00000001	      0.00000000	      0.00000000
      2.24000000	      0.38567153	      0.57662069	     -1.65478712	      0.12787507	      0.98385186	      0.28394228	     10.46137209	     -8.14238658	      0.47499464	     55.20365360	      7.01672173	      0.96348551	      6.58104711	      7.64971420	     -7.50782148	      2.59749734	      1.59412532	     -9.59012418	      4.44167579	      0.64544731	      0.07752187	      4.61606061	     18.08522697	     -7.50782148	     -9.92508022	     -2.05079537	     -2.73885529	     -3.50358486	    -13.39541783	     10.87422217	     31.45747536	     90.00000001	      0.00000000	      0.00000000	      2.28510570	    -16.22793121	     20.36584281	     29.15451435	     90.00000001	      0.00000000	      0.00000000
      2.25000000	      0.52400776	      0.50202001	     -1.37304432	      0.13685999	      0.98447866	      0.28242173	     11.61882199	     -8.06179308	      0.29686428	     55.01647350	      7.21035950	      0.96021861	      6.73484834	      7.67518741	     -7.50776264	      1.98442989	      1.64149903	     -9.74254542	      4.65941590	      0.61050117	      0.08132215	      4.75894979	     18.01234127	     -7.50776264	    -10.10020426	     -1.80948057	     -3.08628155	     -3.95106333	    -13.30012654	     10.88495465	     31.34847134	     90.00000001	      0.00000000	      0.00000000	      3.16868549	    -16.30542426	     20.34159958	     29.53472020	     90.00000001	      0.00000000	      0.00000000
      2.26000000	      0.76529759	      0.10511869	     -0.85351296	      0.14645611	      0.98505692	      0.28087257	     12.41928770	     -7.63934683	     -0.63058040	     54.45215662	      7.06107585	      0.95036942	      7.75976364	      8.28962566	     -7.50730337	      0.89919249	      1.38313283	     -8.83541565	      4.24175154	      0.54980890	      0.07403253	      5.53219158	     18.45413657	     -7.50730337	    -10.28948659	     -1.19155222	     -3.36693310	     -4.56931011	    -13.00784229	      9.77676115	     31.06424746	     90.00000001	      0.00000000	      0.00000000	      4.22988787	    -16.68632800	     22.54775822	     29.83844146	     90.00000001	      0.00000000	      0.00000000
      2.27000000	      0.78389520	      0.04172694	     -0.58694132	      0.15561105	      0.98528737	      0.27930042	     13.57292813	     -7.58022569	     -0.91956266	     53.77172241	      7.24884580	      0.93849360	      8.11702888	      8.22068391	     -7.50722314	      0.31421609	      1.47512968	     -8.78761294	      4.27583679	      0.43876891	      0.07462743	      5.87705612	     18.54603053	     -7.50722314	    -10.27597338	     -0.94284366	     -3.61177133	     -5.09941560	    -12.93107030	      9.74184096	     30.90979382	     90.00000001	      0.00000000	      0.00000000	      5.10521828	    -16.69311826	     22.61325986	     30.15958492	     90.00000001	      0.00000000	      0.00000000
      2.28000000	      1.11018187	     -0.36354730	     -0.06930855	      0.16504406	      0.98585489	      0.27785052	     14.10456426	     -7.11055741	     -1.53724872	     52.56092466	      7.37427204	      0.91736119	      8.58602203	      7.95866292	     -7.50692297	     -0.76692032	      1.13500210	     -8.18173094	      4.01524953	      0.42553332	      0.07007932	      6.43600943	     18.96323160	     -7.50692297	    -10.58244385	     -0.31768658	     -3.94129614	     -5.63296807	    -12.70017762	      9.00572190	     30.72676833	     90.00000001	      0.00000000	      0.00000000	      6.10417226	    -16.89854921	     23.64278828	     30.48118048	     90.00000001	      0.00000000	      0.00000000
      2.29000000	      1.07245893	     -0.29082123	      0.10042482	      0.17416393	      0.98571250	      0.27644213	     15.24228100	     -7.16235584	     -1.90925542	     51.46823693	      7.42234512	      0.89829019	      8.78063729	      7.84556498	     -7.50686032	     -1.27155291	      1.33867588	     -8.29933400	      4.10131876	      0.34736921	      0.07158152	      6.71257764	     18.95041243	     -7.50686032	    -10.49581297	     -0.23940646	     -4.04879963	     -6.17861437	    -12.60233241	      8.99499251	     30.57311331	     90.00000001	      0.00000000	      0.00000000	      6.94937510	    -16.93329986	     23.61377516	     30.93786486	     90.00000001	      0.00000000	      0.00000000
      2.30000000	      1.43197062	     -0.71518065	      0.61814789	      0.18371783	      0.98606312	      0.27511610	     15.53761947	     -6.61506658	     -2.46380711	     49.70112530	      7.57590152	      0.86744828	      9.13716228	      7.21713826	     -7.50662874	     -2.45598310	      0.94852469	     -7.65669787	      3.70353967	      0.32365452	      0.06463896	      7.35994442	     19.51362557	     -7.50662874	    -10.81645099	      0.40229440	     -4.40716615	     -6.67192558	    -12.36062263	      8.27996498	     30.35141973	     90.00000001	      0.00000000	      0.00000000	      7.79792141	    -17.12277027	     24.33050105	     31.46129930	     90.00000001	      0.00000000	      0.00000000
